<svg xmlns="http://www.w3.org/2000/svg" width="23" height="32">
    <path fill-rule="evenodd" d="M21.05 18.093l-.002.001a.923.923 0 0 1-.12.303l-8.594 13.178a.948.948 0 0 1-.794.431h-.013a.951.951 0 0 1-.795-.452L.137 14.293a.946.946 0 0 1 .807-1.444h10.441a3.027 3.027 0 0 0 3.024-3.024 3.028 3.028 0 0 0-3.024-3.024 3.028 3.028 0 0 0-3.024 3.024.947.947 0 1 1-1.896 0 4.925 4.925 0 0 1 4.92-4.92 4.925 4.925 0 0 1 4.92 4.92 4.926 4.926 0 0 1-4.92 4.921H2.639l8.925 14.539 7.776-11.924.002-.002a.92.92 0 0 1 .124-.309c2-3.039 2.171-6.77.457-9.98-1.713-3.209-4.908-5.143-8.546-5.172-5.241.042-8.51 3.792-9.418 7.489a.948.948 0 0 1-1.841-.453C1.399 3.718 6.029.045 11.377.002c4.359.035 8.173 2.343 10.219 6.175 2.046 3.833 1.841 8.287-.546 11.916z"/>
</svg>
