<?xml version="1.0" encoding="utf-8"?>
<!-- Generator: Adobe Illustrator 22.0.1, SVG Export Plug-In . SVG Version: 6.00 Build 0)  -->
<svg version="1.1" id="Layer_1" xmlns="http://www.w3.org/2000/svg" xmlns:xlink="http://www.w3.org/1999/xlink" x="0px" y="0px"
	 viewBox="0 0 50 50" style="enable-background:new 0 0 50 50;" xml:space="preserve">
<style type="text/css">
	.st0{fill:#FFFFFF;}
	.st1{fill:#283891;}
</style>
<path class="st0" d="M4.3,0h41.4C48.1,0,50,1.9,50,4.3l0,0v41.4c0,2.4-1.9,4.3-4.3,4.3H4.3C1.9,50,0,48.1,0,45.7V4.3
	C0,1.9,1.9,0,4.3,0z"/>
<path class="st1" d="M25,44.3L25,44.3c-4.4,0-7.9-3.6-7.8-7.9l0-13.8c0-0.6,0.5-1.1,1.1-1.1h8.5L18,17.5c-0.5-0.1-0.8-0.5-0.8-1
	c0-2.1,0.8-4.1,2.3-5.6c1.4-1.5,3.4-2.3,5.5-2.3c4.3,0,7.9,3.5,7.9,7.8c0,0.6-0.5,1.1-1,1.1c0,0,0,0,0,0h0c-0.6,0-1.1-0.5-1.1-1.1
	c0-3.2-2.6-5.7-5.8-5.7c-1.5,0-3,0.6-4,1.7c-0.9,0.9-1.5,2.1-1.6,3.4l12.9,5.7c0.5,0.2,0.8,0.9,0.5,1.4c-0.2,0.4-0.5,0.6-1,0.6H19.3
	l0,12.8c0,3.2,2.5,5.8,5.7,5.8c1.5,0,3-0.6,4.1-1.7c1.1-1.1,1.7-2.5,1.7-4.1c0-0.6,0.5-1.1,1.1-1.1h0c0.6,0,1.1,0.5,1,1.1
	c0,0,0,0,0,0c0,2.1-0.8,4.1-2.3,5.6C29.1,43.5,27.1,44.3,25,44.3z"/>
</svg>
