<?xml version="1.0" encoding="utf-8"?>
<!-- Generator: Adobe Illustrator 22.0.1, SVG Export Plug-In . SVG Version: 6.00 Build 0)  -->
<svg version="1.1" id="Layer_1" xmlns="http://www.w3.org/2000/svg" xmlns:xlink="http://www.w3.org/1999/xlink" x="0px" y="0px"
	 viewBox="0 0 25 50" style="enable-background:new 0 0 25 50;" xml:space="preserve">
<style type="text/css">
	.st0{fill:#283891;}
</style>
<path class="st0" d="M12.5,50h-0.1C5.6,50,0,45,0.1,38.9l0-19.4c0-0.8,0.8-1.5,1.7-1.5h13.5l-14-5.5C0.6,12.4,0,11.8,0,11.1
	c0-2.9,1.3-5.7,3.6-7.8C5.9,1.2,9.1,0,12.4,0c6.9-0.1,12.5,4.9,12.6,10.9c0,0.8-0.7,1.5-1.7,1.5c0,0,0,0,0,0h0
	c-0.9,0-1.7-0.7-1.7-1.5c0-4.4-4.1-8-9.2-8C10,3,7.7,3.9,6,5.4c-1.4,1.3-2.3,3-2.6,4.7l20.6,8c0.9,0.3,1.2,1.2,0.9,2
	C24.6,20.6,24,21,23.3,21H3.5l0,17.9c0,4.4,4,8.1,9,8.1c2.4,0,4.7-0.8,6.4-2.3c1.7-1.5,2.7-3.5,2.7-5.7c0-0.8,0.8-1.5,1.7-1.5h0
	c0.9,0,1.7,0.7,1.7,1.5c0,0,0,0,0,0c0,2.9-1.4,5.7-3.7,7.8C19,48.9,15.8,50,12.5,50z"/>
</svg>
