<?xml version="1.0" encoding="utf-8"?>
<!-- Generator: Adobe Illustrator 22.0.1, SVG Export Plug-In . SVG Version: 6.00 Build 0)  -->
<svg version="1.1" id="Layer_1" xmlns="http://www.w3.org/2000/svg" xmlns:xlink="http://www.w3.org/1999/xlink" x="0px" y="0px"
	 viewBox="0 0 100 92" style="enable-background:new 0 0 100 92;" xml:space="preserve">
<style type="text/css">
	.st0{opacity:0.502;fill:#0078D7;enable-background:new    ;}
</style>
<path class="st0" d="M26.7,89.2L2.8,65c-3.7-3.8-3.7-9.8,0-13.6l23.9-24.2c3.7-3.7,9.7-3.8,13.4,0c0,0,0,0,0.1,0.1l23.9,24.1
	c3.7,3.8,3.7,9.8,0,13.6L40.2,89.2C36.5,92.9,30.5,92.9,26.7,89.2C26.8,89.2,26.7,89.2,26.7,89.2z M23,58.3l10.5,10.6l10.5-10.6
	L33.5,47.7C33.5,47.7,23,58.3,23,58.3z M80.7,53.6l-11-11.1c-1.7-1.7-1.7-4.5,0-6.3l11-11.1c1.7-1.7,4.5-1.7,6.2,0c0,0,0,0,0,0
	l11,11.1c1.7,1.7,1.7,4.5,0,6.3L86.9,53.6C85.2,55.3,82.5,55.3,80.7,53.6C80.7,53.6,80.7,53.6,80.7,53.6z M79,39.3l4.8,4.9l4.8-4.9
	l-4.8-4.9L79,39.3z M88.5,18.5l-6.8-6.9c-1.1-1.1-1.1-2.8,0-3.9l6.8-6.9c1.1-1.1,2.8-1.1,3.8,0c0,0,0,0,0,0l6.8,6.9
	c1.1,1.1,1.1,2.8,0,3.9l-6.8,6.9C91.3,19.5,89.6,19.5,88.5,18.5C88.5,18.5,88.5,18.5,88.5,18.5z M87.5,9.6l3,3l3-3l-3-3L87.5,9.6z"
	/>
</svg>
