<?xml version="1.0" encoding="utf-8"?>
<!-- Generator: Adobe Illustrator 22.0.1, SVG Export Plug-In . SVG Version: 6.00 Build 0)  -->
<svg version="1.1" id="Layer_1" xmlns="http://www.w3.org/2000/svg" xmlns:xlink="http://www.w3.org/1999/xlink" x="0px" y="0px"
	 viewBox="0 0 50 70" style="enable-background:new 0 0 50 70;" xml:space="preserve">
<path d="M25,0c-1.9,0-3.4,1.6-3.4,3.6v54.1L5.9,41.2c-1.3-1.4-3.4-1.5-4.8-0.2c0,0,0,0,0,0c-1.4,1.4-1.4,3.7-0.1,5.2
	c0,0,0.1,0.1,0.1,0.1L22.4,69l1.1,0.8c0.8,0.4,1.8,0.4,2.6,0l1.1-0.8l21.8-23c1.4-1.4,1.4-3.7,0.1-5.2c-1.3-1.4-3.4-1.5-4.8-0.2
	c-0.1,0.1-0.1,0.1-0.2,0.2l-15.8,17V3.6C28.3,1.7,26.9,0.1,25,0z"/>
</svg>
