<?xml version="1.0" encoding="utf-8"?>
<!-- Generator: Adobe Illustrator 22.0.1, SVG Export Plug-In . SVG Version: 6.00 Build 0)  -->
<svg version="1.1" id="Layer_1" xmlns="http://www.w3.org/2000/svg" xmlns:xlink="http://www.w3.org/1999/xlink" x="0px" y="0px"
	 viewBox="0 0 50 50" style="enable-background:new 0 0 50 50;" xml:space="preserve">
<style type="text/css">
	.st0{fill:#283891;}
</style>
<path class="st0" d="M34.6,50H15.4C6.9,50,0,43.1,0,34.6V15.4C0,6.9,6.9,0,15.4,0c0,0,0,0,0,0h19.2C43.1,0,50,6.9,50,15.4l0,0v19.2
	C50,43.1,43.1,50,34.6,50L34.6,50z M45.2,17.2c0-6.9-5.6-12.4-12.4-12.4H17.2c-6.9,0-12.4,5.6-12.4,12.4v15.5
	c0,6.9,5.6,12.4,12.4,12.4c0,0,0,0,0,0h15.5c6.9,0,12.4-5.6,12.4-12.4c0,0,0,0,0,0C45.2,32.8,45.2,17.2,45.2,17.2z M37.9,15.1
	c-1.8,0-3.3-1.5-3.3-3.3s1.5-3.3,3.3-3.3c1.8,0.1,3.3,1.6,3.2,3.5C41.1,13.6,39.7,15,37.9,15.1z M38.8,25.1
	c0,7.3-5.9,13.2-13.2,13.2s-13.2-5.9-13.2-13.2c0-7.3,5.9-13.2,13.2-13.2c0,0,0,0,0,0C32.9,11.9,38.8,17.8,38.8,25.1L38.8,25.1z
	 M25.7,17.2c-4.4,0-7.9,3.5-7.9,7.9s3.5,7.9,7.9,7.9s7.9-3.5,7.9-7.9S30,17.2,25.7,17.2z"/>
</svg>
