<?xml version="1.0" encoding="utf-8"?>
<!-- Generator: Adobe Illustrator 22.0.1, SVG Export Plug-In . SVG Version: 6.00 Build 0)  -->
<svg version="1.1" id="Layer_1" xmlns="http://www.w3.org/2000/svg" xmlns:xlink="http://www.w3.org/1999/xlink" x="0px" y="0px"
	 viewBox="0 0 50 30" style="enable-background:new 0 0 50 30;" xml:space="preserve">
<path d="M49,30H10.5C3.5,30,0,25.8,0,17.4V6.1c0-0.5,0.4-0.9,1-0.9c0.6,0,1,0.4,1,0.9v11.4c0,7.4,2.7,10.8,8.5,10.8H48V1.7H7.3
	l17.3,16.7l15.2-9.7H25.1c-0.5,0-1-0.4-1-0.9c0,0,0,0,0,0c0-0.5,0.4-0.9,1-0.9h17.7c0.4-0.3,1.1-0.2,1.4,0.2
	c0.3,0.4,0.2,0.9-0.2,1.2c-0.2,0.1-0.4,0.2-0.6,0.2L25.1,20.3c-0.4,0.3-1,0.2-1.3-0.1L4.3,1.4C4,1.2,3.9,0.8,4.1,0.5
	C4.3,0.2,4.6,0,5,0h44c0.6,0,1,0.4,1,0.9v28.3C50,29.6,49.6,30,49,30z"/>
</svg>
