<?xml version="1.0" encoding="utf-8"?>
<!-- Generator: Adobe Illustrator 22.0.1, SVG Export Plug-In . SVG Version: 6.00 Build 0)  -->
<svg version="1.1" id="Layer_1" xmlns="http://www.w3.org/2000/svg" xmlns:xlink="http://www.w3.org/1999/xlink" x="0px" y="0px"
	 viewBox="0 0 50 70" style="enable-background:new 0 0 50 70;" xml:space="preserve">
<path d="M28.8,70H1.8c-1,0-1.8-0.8-1.8-1.7V1.7C0,0.8,0.8,0,1.8,0h36.8c1,0,1.8,0.8,1.8,1.7c0,0,0,0,0,0l0,5.6h7.9
	c1,0,1.8,0.8,1.8,1.7l0,40.6v0C50,60.9,40.5,70,28.8,70z M46.4,10.7h-6.2L40,51.3c0,0.9-0.8,1.7-1.8,1.7H10.3c-1,0-1.8-0.8-1.8-1.7
	v0V25.5c0-10,8.5-18.1,18.9-18.1h9.3l0-3.9H3.5v63.2h25.3c9.7,0,17.6-7.6,17.6-17L46.4,10.7z M36.7,10.7h-9.3
	c-8.5,0-15.3,6.6-15.3,14.7v24.1h24.4L36.7,10.7z M23,64.4c-2.6,0-4.7-2-4.7-4.5c0.1-2.5,2.3-4.5,4.9-4.4c2.5,0.1,4.4,2,4.5,4.4
	C27.7,62.4,25.6,64.4,23,64.4z M23,57.6c-1.3,0-2.4,1-2.4,2.3c0,1.3,1.1,2.3,2.4,2.3l0,0c1.3,0,2.4-1,2.4-2.3
	C25.4,58.7,24.3,57.6,23,57.6z"/>
</svg>
