<?xml version="1.0" encoding="utf-8"?>
<!-- Generator: Adobe Illustrator 22.0.1, SVG Export Plug-In . SVG Version: 6.00 Build 0)  -->
<svg version="1.1" id="Layer_1" xmlns="http://www.w3.org/2000/svg" xmlns:xlink="http://www.w3.org/1999/xlink" x="0px" y="0px"
	 viewBox="0 0 60 52" style="enable-background:new 0 0 60 52;" xml:space="preserve">
<style type="text/css">
	.st0{fill:#E3E3E3;}
</style>
<path class="st0" d="M60,28.6v20.7c0,1.5-1.2,2.7-2.7,2.7H36.7c-1.5,0-2.7-1.2-2.7-2.7l0-23.4h0c0.1-12.6,9.1-23.1,21-25.6
	c0.5-0.1,0.8-0.2,1.6-0.3c0.2,0,0.8,0,0.8,0C58.8,0,60,1.2,60,2.7v4.1c0,1.4-1,2.5-2.4,2.7c0,0,0,0,0,0c0,0-1,0.2-1.5,0.3
	c-7.2,1.9-12.6,8.4-12.7,16.2h13.9C58.8,25.9,60,27.1,60,28.6z M23.3,52H2.7C1.2,52,0,50.8,0,49.3l0-23.4h0C0.1,13.3,9.1,2.8,21,0.3
	c0.5-0.1,0.8-0.2,1.6-0.3c0.2,0,0.8,0,0.8,0C24.8,0,26,1.2,26,2.7c0,0,0,0,0,0v4.1c0,1.4-1,2.5-2.4,2.7l0,0c0,0-1,0.2-1.5,0.3
	c-7.2,1.9-12.6,8.4-12.7,16.2h13.9c1.5,0,2.7,1.2,2.7,2.7v20.7C26,50.8,24.8,52,23.3,52z"/>
</svg>
