<?xml version="1.0" encoding="utf-8"?>
<!-- Generator: Adobe Illustrator 22.0.1, SVG Export Plug-In . SVG Version: 6.00 Build 0)  -->
<svg version="1.1" id="Layer_1" xmlns="http://www.w3.org/2000/svg" xmlns:xlink="http://www.w3.org/1999/xlink" x="0px" y="0px"
	 viewBox="0 0 92.8 89.2" style="enable-background:new 0 0 92.8 89.2;" xml:space="preserve">
<style type="text/css">
	.st0{opacity:0.502;fill:#283891;enable-background:new    ;}
</style>
<path class="st0" d="M33.8,85.6L3.5,54.9c-4.7-4.8-4.7-12.5,0-17.3L33.8,6.9c4.7-4.8,12.3-4.8,17,0l30.3,30.7
	c4.7,4.8,4.7,12.5,0,17.3L50.8,85.6C46.1,90.4,38.5,90.4,33.8,85.6L33.8,85.6z M29.1,46.3l13.2,13.4l13.3-13.4L42.3,32.8L29.1,46.3
	L29.1,46.3z M73.4,24.5l-9-9.2c-1.4-1.4-1.4-3.7,0-5.2l9-9.2c1.4-1.4,3.7-1.4,5.1,0l9,9.2c1.4,1.4,1.4,3.7,0,5.2l-9,9.2
	C77.1,26,74.8,26,73.4,24.5z M72,12.8l3.9,4l4-4l-3.9-4C75.9,8.8,72,12.8,72,12.8z M84.1,73.3L78.9,68c-0.8-0.8-0.8-2.1,0-3l5.2-5.3
	c0.8-0.8,2.1-0.8,2.9,0l5.2,5.3c0.8,0.8,0.8,2.1,0,3L87,73.3C86.2,74.1,84.9,74.1,84.1,73.3C84.1,73.3,84.1,73.3,84.1,73.3
	L84.1,73.3z M83.3,66.5l2.3,2.3l2.3-2.3l-2.3-2.3L83.3,66.5z"/>
</svg>
