<?xml version="1.0" encoding="utf-8"?>
<!-- Generator: Adobe Illustrator 22.1.0, SVG Export Plug-In . SVG Version: 6.00 Build 0)  -->
<svg version="1.1" id="Layer_1" xmlns="http://www.w3.org/2000/svg" xmlns:xlink="http://www.w3.org/1999/xlink" x="0px" y="0px"
	 viewBox="0 0 704.1 148.7" style="enable-background:new 0 0 704.1 148.7;" xml:space="preserve">
<style type="text/css">
	.st0{fill:none;stroke:#69C9CA;stroke-width:6.9252;stroke-linecap:round;stroke-linejoin:round;stroke-miterlimit:10;}
	.st1{fill:#2B3990;}
	.st2{fill:none;stroke:#2B3990;stroke-width:6.9252;stroke-linecap:round;stroke-linejoin:round;stroke-miterlimit:10;}
	.st3{fill:#A7A9AC;}
	.st4{fill:#939598;}
</style>
<g>
	<g>
		<g>
			<path class="st0" d="M397.8,93.8"/>
		</g>
		<g>
			<path class="st1" d="M356.2,128.5l-31,0c-3.5,0-6.8-1.4-9.4-3.9c-2.5-2.6-3.9-5.9-3.9-9.5l0.1-40.9c0.1-9-7.2-16.4-16.2-16.5
				c-4.2,0-8.5,1.6-11.6,4.7c-3.1,3.1-4.8,7.1-4.9,11.5c0,1.9-1.6,3.4-3.5,3.4c0,0,0,0,0,0c-1.9,0-3.4-1.6-3.4-3.5
				c0-6.2,2.5-12,6.9-16.4c4.4-4.3,10.2-6.7,16.3-6.7c0.1,0,0.1,0,0.2,0c12.8,0.1,23.2,10.6,23.1,23.4l-0.1,40.9
				c0,1.7,0.6,3.4,1.9,4.6c1.2,1.2,2.8,1.9,4.5,1.9l31,0c1.9,0,3.5,1.5,3.5,3.5C359.6,126.9,358.1,128.5,356.2,128.5z"/>
		</g>
		<g>
			<path class="st1" d="M346.6,148.7C346.6,148.7,346.6,148.7,346.6,148.7c-12.8-0.1-23.2-10.6-23.1-23.4c0-6.2,2.5-12,7-16.4
				c4.4-4.3,10.2-6.7,16.3-6.7c0.1,0,0.1,0,0.2,0l9.6-0.1l24.4,0.2c6,0.5,11.3-3.8,12.8-9.4c0.5-1.3,0.7-2.4,0.7-3.7
				c0-1.9,1.5-3.6,3.5-3.4c1.9,0,3.5,1.6,3.4,3.5c0,2.3-0.4,4.2-1.1,5.9c-2.1,8.1-10.1,14-19.2,14c-0.1,0-0.1,0-0.2,0l-24.3-0.2
				l-9.6,0.1c0,0-0.1,0-0.1,0c-4.4,0-8.4,1.7-11.5,4.7c-3.1,3.1-4.9,7.1-4.9,11.5c-0.1,9,7.2,16.4,16.2,16.5c1.9,0,3.4,1.6,3.4,3.5
				C350.1,147.2,348.5,148.7,346.6,148.7z"/>
		</g>
		<g>
			<path class="st1" d="M296,63C296,63,296,63,296,63c-1.9,0-3.5-1.6-3.5-3.5c0.1-11.1,9.1-20,20.2-20c0.1,0,0.1,0,0.2,0l33.6,0.1
				c0,0,0.1,0,0.1,0c9,0,16.3-7.2,16.3-16.2c0.1-9-7.2-16.4-16.2-16.5c-1.9,0-3.4-1.6-3.4-3.5c0-1.9,1.6-3.4,3.5-3.4c0,0,0,0,0,0
				c12.8,0.1,23.2,10.6,23.1,23.4c-0.1,12.8-10.5,23.1-23.2,23.1c-0.1,0-0.1,0-0.2,0l-33.6-0.1c0,0-0.1,0-0.1,0
				c-7.3,0-13.2,5.9-13.3,13.2C299.4,61.5,297.9,63,296,63z"/>
		</g>
		<g>
			<path class="st1" d="M398,97.3c-0.1,0-0.1,0-0.2,0c0,0-0.9,0-0.9,0c-12.5-0.6-22.2-10.9-22.1-23.4l0-34.5
				c0-7.3-5.8-13.3-13.1-13.4h-24.4c-1.9,0-3.5-1.5-3.5-3.5s1.6-3.5,3.5-3.5h24.4c11.1,0.1,20.1,9.2,20.1,20.3l0,34.5
				c-0.1,8.7,6.9,16.1,15.5,16.5c0,0,0.1,0,0.1,0c9.6,0,16.9-7.2,17-16.2c0-1.9,1.6-3.4,3.5-3.4c0,0,0,0,0,0c1.9,0,3.4,1.6,3.4,3.5
				C421.1,87,410.7,97.3,398,97.3z"/>
		</g>
		<g>
			<path class="st2" d="M411.3,93.8"/>
		</g>
		<g>
			<path class="st2" d="M378.2,73.1"/>
		</g>
		<g>
			<path class="st2" d="M356.6,108.1"/>
		</g>
		<g>
			<path class="st1" d="M356.2,128.5c-1.9,0-3.5-1.5-3.5-3.5V54.9c0-1.9,1.6-3.5,3.5-3.5h41.7c1.9,0,3.5,1.5,3.5,3.5v38.9
				c0,1.9-1.6,3.5-3.5,3.5c-1.9,0-3.5-1.5-3.5-3.5V58.4h-34.8V125C359.6,126.9,358.1,128.5,356.2,128.5z"/>
		</g>
		<g>
			<path class="st1" d="M337.1,96.8H296c-1.9,0-3.5-1.5-3.5-3.5V60.5c0-1.9,1.6-3.5,3.5-3.5s3.5,1.5,3.5,3.5v29.4h34.2V22.7
				c0-1.9,1.6-3.5,3.5-3.5c1.9,0,3.5,1.5,3.5,3.5v70.6C340.6,95.2,339,96.8,337.1,96.8z"/>
		</g>
		<g>
			<path class="st3" d="M323.9,35h-12.3c-1.9,0-3.5-1.5-3.5-3.5V19.2c0-1.9,1.6-3.5,3.5-3.5h12.3c1.9,0,3.5,1.5,3.5,3.5v12.3
				C327.4,33.4,325.8,35,323.9,35z M315.1,28h5.4v-5.4h-5.4V28z"/>
		</g>
		<g>
			<path class="st3" d="M378.5,129.9H368c-1.6,0-2.9-1.3-2.9-2.9v-10.5c0-1.6,1.3-2.9,2.9-2.9h10.5c1.6,0,2.9,1.3,2.9,2.9v10.5
				C381.4,128.6,380.1,129.9,378.5,129.9z M371,124h4.6v-4.6H371V124z"/>
		</g>
		<g>
			<path class="st3" d="M397.9,45.5h-8.8c-1.4,0-2.5-1.1-2.5-2.5v-8.8c0-1.4,1.1-2.5,2.5-2.5h8.8c1.4,0,2.5,1.1,2.5,2.5V43
				C400.4,44.4,399.3,45.5,397.9,45.5z M391.6,40.5h3.9v-3.9h-3.9V40.5z"/>
		</g>
		<g>
			<path class="st3" d="M306.2,110.7h-7.1c-1.1,0-2-0.9-2-2v-7.1c0-1.1,0.9-2,2-2h7.1c1.1,0,2,0.9,2,2v7.1
				C308.2,109.8,307.3,110.7,306.2,110.7z M301.2,106.7h3.1v-3.1h-3.1V106.7z"/>
		</g>
	</g>
	<g>
		<g>
			<g>
				<path class="st4" d="M445.5,98c0-0.6,0.5-1,1-1h3.5c1.3,0,2.5,0.4,3.3,1.2c0.8,0.8,1.3,1.9,1.3,3.2c0,1.3-0.4,2.3-1.2,3.1
					c-0.8,0.8-2,1.2-3.4,1.2h-3v5.8c0,0.4-0.4,0.7-0.8,0.7s-0.8-0.3-0.8-0.7V98z M450.1,104.2c1,0,1.7-0.3,2.3-0.8
					c0.5-0.5,0.8-1.2,0.8-2c0-0.9-0.3-1.7-0.8-2.2c-0.5-0.5-1.3-0.8-2.2-0.8h-3v5.7H450.1z"/>
				<path class="st4" d="M457.1,103.9c0-1.8,1.3-2.9,2.9-2.9c0.5,0,1.1,0.1,1.6,0.2c0.4,0.1,0.6,0.4,0.6,0.7c0,0.4-0.3,0.7-0.8,0.7
					c-0.1,0-0.2,0-0.4-0.1c-0.4-0.1-0.7-0.1-1.1-0.1c-0.8,0-1.4,0.6-1.4,1.5v7.5c0,0.4-0.3,0.7-0.8,0.7s-0.8-0.3-0.8-0.7V103.9z"/>
				<path class="st4" d="M472,108c0,2.4-1.7,4.1-4.3,4.1c-2.6,0-4.3-1.7-4.3-4.1v-2.9c0-2.4,1.7-4.1,4.3-4.1c2.6,0,4.3,1.7,4.3,4.1
					V108z M470.5,105c0-1.7-1-2.7-2.8-2.7c-1.7,0-2.8,1-2.8,2.7v3.1c0,1.7,1,2.7,2.8,2.7c1.7,0,2.8-1,2.8-2.7V105z"/>
				<path class="st4" d="M475.3,101.7c0-0.4,0.3-0.7,0.8-0.7s0.8,0.3,0.8,0.7v10.9c0,2-1.2,3.6-3.1,4c-0.1,0-0.2,0-0.2,0
					c-0.3,0-0.7-0.3-0.7-0.7c0-0.3,0.2-0.6,0.6-0.7c1.2-0.3,1.9-1.2,1.9-2.5V101.7z M475,97.7c0-0.5,0.4-1,1-1c0.6,0,1,0.4,1,1
					c0,0.5-0.5,1-1,1C475.5,98.7,475,98.3,475,97.7z"/>
				<path class="st4" d="M481.1,107v1.2c0,1.5,1,2.6,2.6,2.6c0.9,0,1.7-0.3,2.6-0.6c0.1,0,0.2-0.1,0.3-0.1c0.4,0,0.8,0.3,0.8,0.7
					c0,0.3-0.2,0.5-0.4,0.6c-1,0.5-2.1,0.7-3.2,0.7c-2.5,0-4.1-1.6-4.1-3.9v-3.3c0-2.3,1.6-3.9,4.1-3.9c2.4,0,4.1,1.6,4.1,3.9v1.1
					c0,0.6-0.5,1-1.1,1H481.1z M486.3,104.8c0-1.5-1-2.4-2.6-2.4c-1.6,0-2.6,0.9-2.6,2.4v0.9h5.1V104.8z"/>
				<path class="st4" d="M490.1,104.9c0-2.3,1.6-3.9,4.1-3.9c1,0,2,0.2,2.9,0.6c0.3,0.1,0.4,0.4,0.4,0.6c0,0.4-0.3,0.7-0.8,0.7
					c-0.1,0-0.2,0-0.3-0.1c-0.7-0.3-1.5-0.5-2.3-0.5c-1.6,0-2.6,0.9-2.6,2.4v3.5c0,1.5,1,2.4,2.6,2.4c0.8,0,1.6-0.2,2.3-0.5
					c0.1,0,0.2-0.1,0.3-0.1c0.4,0,0.8,0.3,0.8,0.7c0,0.3-0.2,0.5-0.4,0.6c-0.9,0.4-1.9,0.6-2.9,0.6c-2.5,0-4.1-1.6-4.1-3.9V104.9z"
					/>
				<path class="st4" d="M499.8,97.5c0-0.4,0.3-0.7,0.8-0.7s0.8,0.3,0.8,0.7v3.7h2.6c0.4,0,0.7,0.3,0.7,0.7c0,0.4-0.3,0.7-0.7,0.7
					h-2.6v6.6c0,0.9,0.6,1.5,1.4,1.5c0.3,0,1-0.1,1.2-0.1c0.3,0,0.7,0.3,0.7,0.7c0,0.3-0.2,0.6-0.6,0.7c-0.4,0.1-0.9,0.1-1.3,0.1
					c-1.6,0-2.9-1.2-2.9-2.9V97.5z"/>
				<path class="st4" d="M523.9,100.1l-4.1,7.5c-0.2,0.3-0.5,0.5-0.8,0.5c-0.3,0-0.7-0.2-0.8-0.5l-4.1-7.5v11.3
					c0,0.4-0.4,0.7-0.8,0.7s-0.8-0.3-0.8-0.7V97.6c0-0.5,0.4-0.9,0.9-0.9c0.4,0,0.6,0.2,0.8,0.5l4.7,8.7l4.7-8.7
					c0.2-0.3,0.5-0.5,0.8-0.5c0.5,0,0.9,0.4,0.9,0.9v13.7c0,0.4-0.4,0.7-0.8,0.7c-0.4,0-0.8-0.3-0.8-0.7V100.1z"/>
				<path class="st4" d="M536.3,110.6c0,0.4-0.3,0.8-0.7,0.9c-1.1,0.3-2.2,0.5-3.4,0.5c-1.4,0-2.4-0.3-3.1-0.9c-0.6-0.5-1-1.4-1-2.4
					c0-1,0.3-1.8,1-2.4c0.7-0.6,1.7-0.9,3.1-0.9h2.6v-1.3c0-1.3-1-1.9-2.4-1.9c-0.9,0-1.7,0.3-2.6,0.7c-0.1,0.1-0.2,0.1-0.4,0.1
					c-0.4,0-0.8-0.3-0.8-0.7c0-0.3,0.1-0.5,0.4-0.6c1.1-0.6,2.2-0.8,3.3-0.8c2.1,0,3.9,1.1,3.9,3.2V110.6z M534.8,106.9h-2.6
					c-2.3,0-2.6,1-2.6,1.9c0,0.8,0.3,1.9,2.6,1.9c0.9,0,1.7-0.1,2.6-0.4V106.9z"/>
				<path class="st4" d="M546,104.8c0-1.5-1-2.4-2.6-2.4c-0.9,0-1.8,0.1-2.6,0.4v8.6c0,0.4-0.3,0.7-0.8,0.7s-0.8-0.3-0.8-0.7v-8.9
					c0-0.4,0.3-0.8,0.7-0.9c1.1-0.4,2.2-0.5,3.4-0.5c2.4,0,4.1,1.6,4.1,3.9v6.5c0,0.4-0.3,0.7-0.8,0.7s-0.8-0.3-0.8-0.7V104.8z"/>
				<path class="st4" d="M558,110.6c0,0.4-0.3,0.8-0.7,0.9c-1.1,0.3-2.2,0.5-3.4,0.5c-1.4,0-2.4-0.3-3.1-0.9c-0.6-0.5-1-1.4-1-2.4
					c0-1,0.3-1.8,1-2.4c0.7-0.6,1.7-0.9,3.1-0.9h2.6v-1.3c0-1.3-1-1.9-2.4-1.9c-0.9,0-1.7,0.3-2.6,0.7c-0.1,0.1-0.2,0.1-0.4,0.1
					c-0.4,0-0.8-0.3-0.8-0.7c0-0.3,0.1-0.5,0.4-0.6c1.1-0.6,2.2-0.8,3.3-0.8c2.1,0,3.9,1.1,3.9,3.2V110.6z M556.5,106.9H554
					c-2.3,0-2.6,1-2.6,1.9c0,0.8,0.3,1.9,2.6,1.9c0.9,0,1.7-0.1,2.6-0.4V106.9z"/>
				<path class="st4" d="M567.3,111.3c-0.8,0.5-1.7,0.7-2.6,0.7c-2.5,0-4.1-1.6-4.1-3.9v-3.3c0-2.3,1.6-3.9,4.1-3.9
					c1.2,0,2.3,0.2,3.4,0.5c0.4,0.2,0.7,0.5,0.7,0.9v10.2c0,2.3-1.6,3.9-4.1,3.9c-1.1,0-2.1-0.2-3.1-0.6c-0.3-0.1-0.5-0.4-0.5-0.6
					c0-0.4,0.3-0.7,0.7-0.7c0.1,0,0.2,0,0.3,0.1c0.8,0.3,1.7,0.6,2.5,0.6c1.6,0,2.6-1,2.6-2.5V111.3z M567.3,102.7
					c-0.8-0.2-1.7-0.4-2.6-0.4c-1.6,0-2.6,0.9-2.6,2.4v3.5c0,1.5,1,2.4,2.6,2.4c0.9,0,1.9-0.3,2.6-1V102.7z"/>
				<path class="st4" d="M573,107v1.2c0,1.5,1,2.6,2.6,2.6c0.9,0,1.7-0.3,2.6-0.6c0.1,0,0.2-0.1,0.3-0.1c0.4,0,0.8,0.3,0.8,0.7
					c0,0.3-0.2,0.5-0.4,0.6c-1,0.5-2.1,0.7-3.2,0.7c-2.5,0-4.1-1.6-4.1-3.9v-3.3c0-2.3,1.6-3.9,4.1-3.9c2.4,0,4.1,1.6,4.1,3.9v1.1
					c0,0.6-0.5,1-1.1,1H573z M578.2,104.8c0-1.5-1-2.4-2.6-2.4c-1.6,0-2.6,0.9-2.6,2.4v0.9h5.1V104.8z"/>
				<path class="st4" d="M594.7,104.6c0-1.2-1-2.2-2.3-2.2c-0.8,0-1.7,0.3-2.3,0.7v8.3c0,0.4-0.3,0.7-0.7,0.7
					c-0.4,0-0.8-0.3-0.8-0.7v-7.5c0-1-1-1.5-2-1.5c-0.9,0-1.8,0.1-2.6,0.4v8.6c0,0.4-0.3,0.7-0.8,0.7s-0.8-0.3-0.8-0.7v-8.8
					c0-0.4,0.3-0.8,0.7-0.9c1.1-0.4,2.2-0.6,3.5-0.6c1.1,0,2,0.4,2.7,1c0.9-0.6,2-1,3.2-1c2.1,0,3.8,1.6,3.8,3.6v6.7
					c0,0.4-0.3,0.7-0.8,0.7c-0.4,0-0.8-0.3-0.8-0.7V104.6z"/>
				<path class="st4" d="M600.3,107v1.2c0,1.5,1,2.6,2.6,2.6c0.9,0,1.7-0.3,2.6-0.6c0.1,0,0.2-0.1,0.3-0.1c0.4,0,0.8,0.3,0.8,0.7
					c0,0.3-0.2,0.5-0.4,0.6c-1,0.5-2.1,0.7-3.2,0.7c-2.5,0-4.1-1.6-4.1-3.9v-3.3c0-2.3,1.6-3.9,4.1-3.9c2.4,0,4.1,1.6,4.1,3.9v1.1
					c0,0.6-0.5,1-1.1,1H600.3z M605.4,104.8c0-1.5-1-2.4-2.6-2.4c-1.6,0-2.6,0.9-2.6,2.4v0.9h5.1V104.8z"/>
				<path class="st4" d="M616.3,104.8c0-1.5-1-2.4-2.6-2.4c-0.9,0-1.8,0.1-2.6,0.4v8.6c0,0.4-0.3,0.7-0.8,0.7s-0.8-0.3-0.8-0.7v-8.9
					c0-0.4,0.3-0.8,0.7-0.9c1.1-0.4,2.2-0.5,3.4-0.5c2.4,0,4.1,1.6,4.1,3.9v6.5c0,0.4-0.3,0.7-0.8,0.7c-0.4,0-0.8-0.3-0.8-0.7V104.8
					z"/>
				<path class="st4" d="M620.9,97.5c0-0.4,0.3-0.7,0.8-0.7s0.8,0.3,0.8,0.7v3.7h2.6c0.4,0,0.7,0.3,0.7,0.7c0,0.4-0.3,0.7-0.7,0.7
					h-2.6v6.6c0,0.9,0.6,1.5,1.4,1.5c0.3,0,1-0.1,1.2-0.1c0.3,0,0.7,0.3,0.7,0.7c0,0.3-0.2,0.6-0.6,0.7c-0.4,0.1-0.9,0.1-1.3,0.1
					c-1.6,0-2.9-1.2-2.9-2.9V97.5z"/>
				<path class="st4" d="M635.5,104.2c-1.7-0.8-2.7-1.6-2.7-3.7c0-2.3,2.2-3.7,4.7-3.7c1.5,0,2.6,0.3,3.6,0.7
					c0.3,0.1,0.5,0.4,0.5,0.7c0,0.4-0.3,0.7-0.8,0.7c-0.1,0-0.2,0-0.3-0.1c-0.9-0.4-1.8-0.6-3-0.6c-1.4,0-3.1,0.6-3.1,2.4
					c0,1.1,0.6,1.8,1.8,2.3l2.4,1.1c1.7,0.8,3.2,1.8,3.2,4.1c0,2.6-2.2,4.1-4.8,4.1c-1.3,0-2.6-0.3-3.8-0.8
					c-0.3-0.1-0.4-0.4-0.4-0.7c0-0.4,0.3-0.7,0.8-0.7c0.1,0,0.2,0,0.3,0.1c1,0.4,2.1,0.7,3.2,0.7c2.2,0,3.2-1,3.2-2.7
					c0-1.4-1.2-2.2-2.4-2.7L635.5,104.2z"/>
				<path class="st4" d="M645.3,107v1.2c0,1.5,1,2.6,2.6,2.6c0.9,0,1.7-0.3,2.6-0.6c0.1,0,0.2-0.1,0.3-0.1c0.4,0,0.8,0.3,0.8,0.7
					c0,0.3-0.2,0.5-0.4,0.6c-1,0.5-2.1,0.7-3.2,0.7c-2.5,0-4.1-1.6-4.1-3.9v-3.3c0-2.3,1.6-3.9,4.1-3.9c2.4,0,4.1,1.6,4.1,3.9v1.1
					c0,0.6-0.5,1-1.1,1H645.3z M650.4,104.8c0-1.5-1-2.4-2.6-2.4c-1.6,0-2.6,0.9-2.6,2.4v0.9h5.1V104.8z"/>
				<path class="st4" d="M654.7,103.9c0-1.8,1.3-2.9,2.9-2.9c0.5,0,1.1,0.1,1.6,0.2c0.4,0.1,0.6,0.4,0.6,0.7c0,0.4-0.3,0.7-0.8,0.7
					c-0.1,0-0.2,0-0.4-0.1c-0.4-0.1-0.7-0.1-1.1-0.1c-0.8,0-1.4,0.6-1.4,1.5v7.5c0,0.4-0.3,0.7-0.8,0.7s-0.8-0.3-0.8-0.7V103.9z"/>
				<path class="st4" d="M660.9,102c0-0.1,0-0.1,0-0.2c0-0.4,0.3-0.7,0.8-0.7c0.3,0,0.6,0.2,0.7,0.5l2.8,8.1l2.6-8.1
					c0.1-0.3,0.4-0.5,0.7-0.5c0.4,0,0.8,0.3,0.8,0.7c0,0.1,0,0.1,0,0.2l-3.2,9.5c-0.1,0.4-0.5,0.6-0.9,0.6c-0.4,0-0.7-0.3-0.9-0.6
					L660.9,102z"/>
				<path class="st4" d="M671.1,97.7c0-0.5,0.4-1,1-1c0.6,0,1,0.4,1,1c0,0.5-0.4,1-1,1C671.6,98.7,671.1,98.3,671.1,97.7z
					 M671.4,101.7c0-0.4,0.3-0.7,0.8-0.7s0.8,0.3,0.8,0.7v9.6c0,0.4-0.3,0.7-0.8,0.7s-0.8-0.3-0.8-0.7V101.7z"/>
				<path class="st4" d="M675.8,104.9c0-2.3,1.6-3.9,4.1-3.9c1,0,2,0.2,2.9,0.6c0.3,0.1,0.4,0.4,0.4,0.6c0,0.4-0.3,0.7-0.8,0.7
					c-0.1,0-0.2,0-0.3-0.1c-0.7-0.3-1.5-0.5-2.3-0.5c-1.6,0-2.6,0.9-2.6,2.4v3.5c0,1.5,1,2.4,2.6,2.4c0.8,0,1.6-0.2,2.3-0.5
					c0.1,0,0.2-0.1,0.3-0.1c0.4,0,0.8,0.3,0.8,0.7c0,0.3-0.2,0.5-0.4,0.6c-0.9,0.4-1.9,0.6-2.9,0.6c-2.5,0-4.1-1.6-4.1-3.9V104.9z"
					/>
				<path class="st4" d="M686.6,107v1.2c0,1.5,1,2.6,2.6,2.6c0.9,0,1.7-0.3,2.6-0.6c0.1,0,0.2-0.1,0.3-0.1c0.4,0,0.8,0.3,0.8,0.7
					c0,0.3-0.2,0.5-0.4,0.6c-1,0.5-2.1,0.7-3.2,0.7c-2.5,0-4.1-1.6-4.1-3.9v-3.3c0-2.3,1.6-3.9,4.1-3.9c2.4,0,4.1,1.6,4.1,3.9v1.1
					c0,0.6-0.5,1-1.1,1H686.6z M691.8,104.8c0-1.5-1-2.4-2.6-2.4c-1.6,0-2.6,0.9-2.6,2.4v0.9h5.1V104.8z"/>
				<path class="st4" d="M697.4,106.6c-1.1-0.4-1.9-1.2-1.9-2.7c0-1.8,1.6-2.9,3.6-2.9c1.1,0,2,0.2,2.7,0.5c0.3,0.1,0.5,0.4,0.5,0.7
					c0,0.4-0.3,0.7-0.8,0.7c-0.1,0-0.2,0-0.3-0.1c-0.7-0.3-1.5-0.5-2.3-0.5c-0.9,0-1.9,0.4-1.9,1.5c0,0.8,0.6,1.3,1.1,1.5l2.1,0.8
					c1.3,0.5,2.2,1.5,2.2,2.8c0,1.8-1.5,3.1-3.6,3.1c-1.2,0-2.1-0.2-3-0.6c-0.3-0.1-0.4-0.4-0.4-0.7c0-0.4,0.3-0.7,0.8-0.7
					c0.1,0,0.2,0,0.3,0.1c0.7,0.3,1.5,0.5,2.4,0.5c1.1,0,2-0.6,2-1.6c0-0.9-0.5-1.4-1.4-1.7L697.4,106.6z"/>
			</g>
			<g>
				<path class="st1" d="M465.9,89.5c-12.1,0-21.4-9.2-21.5-20.5c0-1.9,1.5-3.5,3.4-3.5c1.6,0.1,3.5,1.5,3.5,3.4
					c0.1,7.6,6.2,13.7,13.8,13.7c0,0,0.1,0,0.1,0c7.1-0.3,12.7-5.5,13.6-12l-32.5-18.1c-1.1-0.6-1.8-1.8-1.8-3
					c-0.1-11.2,8.6-20.4,19.7-20.9c6.6-0.2,11.6,2.1,15.5,6c3.9,3.9,6.1,9.1,6.2,14.6c0,1.9-1.5,3.5-3.4,3.5c0,0,0,0,0,0
					c-1.9,0-3.4-1.5-3.5-3.4c0-3.7-1.5-7.1-4.1-9.7c-2.6-2.6-6.5-4.1-9.8-4c-7.2,0.3-12.7,5.5-13.6,12l32.5,18.1
					c1.1,0.6,1.8,1.8,1.8,3c0.1,11.2-8.6,20.4-19.7,20.9C466,89.5,466,89.5,465.9,89.5z"/>
			</g>
			<g>
				<path class="st1" d="M607.3,87.4c-11.4,0-20.7-9.2-20.8-20.5V42.4c0-1.9,1.6-3.5,3.5-3.5s3.5,1.5,3.5,3.5v24.4
					c0.1,7.5,6.2,13.7,13.8,13.7c0,0,0.1,0,0.1,0l0.7,3.5l-0.6,3.5C607.4,87.4,607.4,87.4,607.3,87.4z M608.1,87.4v-3.5V87.4z"/>
			</g>
			<g>
				<path class="st1" d="M527.3,87.4h-26c-5.2,0-9.5-4.2-9.5-9.5V52c0-1.9,1.6-3.5,3.5-3.5h32c1.9,0,3.5,1.5,3.5,3.5
					c0,10.7-8.7,19.4-19.5,19.4h-5.9c-1.9,0-3.5-1.5-3.5-3.5s1.6-3.5,3.5-3.5h5.9c5.7,0,10.5-3.8,12-9.1h-24.6v22.5
					c0,1.4,1.1,2.5,2.5,2.5h26c1.9,0,3.5,1.5,3.5,3.5S529.2,87.4,527.3,87.4z"/>
			</g>
			<g>
				<path class="st1" d="M700.6,87.4h-26c-5.2,0-9.5-4.2-9.5-9.5V52c0-1.9,1.6-3.5,3.5-3.5h32c1.9,0,3.5,1.5,3.5,3.5
					c0,10.7-8.7,19.4-19.5,19.4h-6.5c-1.9,0-3.5-1.5-3.5-3.5s1.6-3.5,3.5-3.5h6.5c5.7,0,10.5-3.8,12-9.1h-24.6v22.5
					c0,1.4,1.1,2.5,2.5,2.5h26c1.9,0,3.5,1.5,3.5,3.5S702.5,87.4,700.6,87.4z"/>
			</g>
			<g>
				<path class="st1" d="M572.1,87.4h-32c-1.9,0-3.5-1.5-3.5-3.5c0-10.7,8.7-19.4,19.5-19.4h4.9c1.9,0,3.5,1.5,3.5,3.5
					s-1.6,3.5-3.5,3.5h-4.9c-5.7,0-10.5,3.8-12,9.1h24.6V58c0-1.4-1.1-2.5-2.5-2.5h-26c-1.9,0-3.5-1.5-3.5-3.5s1.6-3.5,3.5-3.5h26
					c5.2,0,9.5,4.2,9.5,9.5v26C575.6,85.8,574,87.4,572.1,87.4z"/>
			</g>
			<g>
				<path class="st1" d="M653,87.4c-1.9,0-3.5-1.5-3.5-3.5V42.4c0-1.9,1.6-3.5,3.5-3.5s3.5,1.5,3.5,3.5v41.5
					C656.4,85.8,654.9,87.4,653,87.4z"/>
			</g>
			<g>
				<path class="st1" d="M605.5,55.4H599c-1.9,0-3.5-1.5-3.5-3.5s1.6-3.5,3.5-3.5h6.5c1.9,0,3.5,1.5,3.5,3.5S607.4,55.4,605.5,55.4z
					"/>
			</g>
			<g>
				<path class="st1" d="M638.9,55.4h-6.5c-1.9,0-3.5-1.5-3.5-3.5s1.6-3.5,3.5-3.5h6.5c1.9,0,3.5,1.5,3.5,3.5S640.8,55.4,638.9,55.4
					z"/>
			</g>
			<g>
				<path class="st1" d="M590,55.4h-9.3c-1.9,0-3.5-1.5-3.5-3.5s1.6-3.5,3.5-3.5h9.3c1.9,0,3.5,1.5,3.5,3.5S591.9,55.4,590,55.4z"/>
			</g>
			<g>
				<path class="st1" d="M641.2,87.4c-5.5,0-10.7-2.1-14.6-6c-4-3.9-6.2-9.1-6.2-14.6V42.4c0-1.9,1.6-3.5,3.5-3.5s3.5,1.5,3.5,3.5
					v24.4c0,3.6,1.5,7.1,4.1,9.7c2.6,2.6,5.8,4.3,9.8,4l0.7,3.5l-0.6,3.5C641.3,87.4,641.2,87.4,641.2,87.4z M641.9,87.4v-3.5V87.4z
					"/>
			</g>
			<g>
				<path class="st1" d="M623.9,55.4h-9.3c-1.9,0-3.5-1.5-3.5-3.5s1.6-3.5,3.5-3.5h9.3c1.9,0,3.5,1.5,3.5,3.5S625.8,55.4,623.9,55.4
					z"/>
			</g>
		</g>
		<g>
			<g>
				<path class="st1" d="M23.2,88.7c-6.2,0-11.4-2.1-15.3-6c-4-3.9-6.2-9.1-6.2-14.6c0-1.9,1.5-3.5,3.4-3.5c0,0,0,0,0,0
					c1.9,0,3.4,1.5,3.5,3.4c0,3.7,1.5,7.1,4.1,9.7c2.6,2.6,5.9,3.9,9.8,4c7.9-0.3,13.7-6.6,13.7-13.9V36.2c0-1.9,1.6-3.5,3.5-3.5
					s3.5,1.5,3.5,3.5v31.7c0.1,11.2-8.6,20.3-19.7,20.8C23.3,88.7,23.2,88.7,23.2,88.7z"/>
			</g>
			<g>
				<path class="st1" d="M239,74h-31.8c-1.9,0-3.5-1.5-3.5-3.5c0-1.9,1.6-3.5,3.5-3.5H239c1.9,0,3.5,1.5,3.5,3.5
					C242.5,72.4,240.9,74,239,74z"/>
			</g>
			<g>
				<path class="st1" d="M216.3,74c-0.6,0-1.2-0.1-1.7-0.4c-1.7-0.9-2.3-3-1.3-4.7l9.5-17.1c0.9-1.7,3.1-2.3,4.7-1.3
					c1.7,0.9,2.3,3,1.3,4.7l-9.5,17.1C218.7,73.4,217.5,74,216.3,74z"/>
			</g>
			<g>
				<path class="st1" d="M95.9,74H47.6c-0.7,0-1.4-0.2-1.9-0.6l-8-5.4c-1.6-1.1-2-3.2-0.9-4.8c1.1-1.6,3.2-2,4.8-0.9l7.1,4.8h45.2
					l8.5-15.3c0.9-1.7,3.1-2.3,4.7-1.3c1.7,0.9,2.3,3,1.3,4.7l-9.5,17.1C98.3,73.3,97.1,74,95.9,74z"/>
			</g>
			<g>
				<path class="st2" d="M77.3,70.5"/>
			</g>
			<g>
				<path class="st2" d="M86.8,53.4"/>
			</g>
			<g>
				<path class="st1" d="M136.6,74c-11.1,0-20.2-8.6-20.7-19.7l0-18.1c0-1.9,1.6-3.5,3.5-3.5s3.5,1.5,3.5,3.5v17.2
					c0.3,7.8,6.6,14,13.9,13.7h6.7l9.4-15.5c1-1.6,3.1-2.1,4.8-1.2c1.6,1,2.2,3.1,1.2,4.8l-10.4,17.1c-0.6,1-1.7,1.7-3,1.7h-8.6
					C136.7,74,136.7,74,136.6,74z"/>
			</g>
			<g>
				<path class="st1" d="M194.3,74H156c-0.8,0-1.5-0.3-2.1-0.7l-7.2-5.6c-1.5-1.2-1.8-3.3-0.6-4.9c1.2-1.5,3.3-1.8,4.9-0.6l6.3,4.9
					h35.1l8.5-15.3c0.9-1.7,3.1-2.3,4.7-1.3c1.7,0.9,2.3,3,1.3,4.7l-9.5,17.1C196.7,73.3,195.5,74,194.3,74z"/>
			</g>
			<g>
				<path class="st1" d="M142.7,88.7h-15.5c-1.9,0-3.5-1.5-3.5-3.5s1.6-3.5,3.5-3.5h15.5c1.9,0,3.5,1.5,3.5,3.5
					S144.6,88.7,142.7,88.7z"/>
			</g>
			<g>
				<path class="st1" d="M91.7,56.7H76.2c-1.9,0-3.5-1.5-3.5-3.5s1.6-3.5,3.5-3.5h15.5c1.9,0,3.5,1.5,3.5,3.5S93.6,56.7,91.7,56.7z"
					/>
			</g>
			<g>
				<path class="st1" d="M239.1,74c0,0-0.1,0-0.1,0c-1.9,0-3.4-1.6-3.4-3.5c0-1.9,1.6-3.4,3.5-3.4c0,0,0,0,0.1,0
					c3.6,0,6.7-2.9,6.9-6.6c0-2.1-0.7-3.9-2-5.2c-1.3-1.3-3-2.1-4.9-2.1c-1.9,0-3.4-1.6-3.4-3.5c0-1.9,1.4-3.3,3.5-3.4
					c3.7,0,7.1,1.5,9.7,4.1c2.6,2.6,4,6.1,4,9.8C252.6,68.2,246.5,74,239.1,74z"/>
			</g>
			<g>
				<path class="st1" d="M5.1,70.7c-1.9,0-3.5-1.5-3.5-3.5c0-10.9,8.9-19.8,19.8-19.8c1.9,0,3.5,1.5,3.5,3.5s-1.6,3.5-3.5,3.5
					c-7.1,0-12.9,5.8-12.9,12.9C8.6,69.1,7.1,70.7,5.1,70.7z"/>
			</g>
			<g>
				<g>
					<path class="st4" d="M5.7,110.9c0.3,0,0.5,0.1,0.5,0.4v0.9c0,0.3-0.1,0.4-0.4,0.4c-0.1,0-0.2,0-0.4,0c-0.1,0-0.2,0-0.2,0
						c-1.9,0-3.2-0.4-4-1.2c-0.8-0.8-1.2-2-1.2-3.6c0-0.1,0-0.3,0-0.5c0-0.2,0-0.4,0-0.5c0-0.2,0-0.4,0-0.5c0-0.2,0-0.3,0-0.4
						c0-0.1,0.1-0.2,0.1-0.3c0.1-0.1,0.2-0.1,0.3-0.1c0.2,0,0.4,0,0.8,0s0.7,0,1,0H3l-2.1-5.1c0,0-0.1-0.1-0.1-0.2
						c0-0.1,0-0.1,0-0.2l0-0.6C0.9,99.1,1,99,1,98.9c0.1-0.1,0.1-0.2,0.3-0.3c0.5-0.4,1.2-0.8,2.1-1c0.9-0.3,1.7-0.4,2.6-0.4
						c0.7,0,1.4,0.1,2,0.2c0.6,0.2,1.1,0.4,1.6,0.7c0.5,0.3,0.8,0.8,1,1.3c0.2,0.5,0.4,1.2,0.4,1.9v0.4c0,0.4,0,0.7-0.1,1.1
						c-0.1,0.4-0.2,0.7-0.3,1c-0.1,0.3-0.3,0.6-0.5,0.8c-0.2,0.2-0.4,0.4-0.6,0.6H22v1.8H3.7c-0.2,0-0.5,0-0.9,0s-0.7,0-0.9,0
						c0,0.1,0,0.2,0,0.4c0,0.2,0,0.3,0,0.4c0,0.5,0.1,1,0.2,1.3s0.3,0.7,0.6,0.9c0.3,0.2,0.6,0.4,1.1,0.6c0.5,0.1,1,0.2,1.7,0.2H5.7
						z M6.7,105.3c0.8-0.2,1.4-0.6,1.8-1.2c0.4-0.7,0.6-1.4,0.6-2.3v-0.2c0-0.9-0.3-1.6-0.9-2C7.8,99.1,7,98.9,6,98.9
						c-0.2,0-0.4,0-0.7,0c-0.3,0-0.5,0-0.8,0.1c-0.3,0.1-0.6,0.1-0.9,0.2c-0.3,0.1-0.6,0.3-0.9,0.4l2.3,5.6H6.7z"/>
				</g>
				<g>
					<path class="st4" d="M21.1,105.5c0-0.1,0.1-0.2,0.2-0.2c0.1-0.1,0.3-0.1,0.5-0.1h1.6c0.4,0,0.7,0,0.8-0.1
						c0.1-0.1,0.2-0.3,0.2-0.7c0-0.5,0-1,0-1.4c0-0.4,0-0.9,0-1.3c0-0.4,0-0.9,0-1.4c0-0.5,0-1,0-1.5c0-0.1,0-0.2,0.1-0.3
						c0.1-0.1,0.2-0.1,0.3-0.1h1.1c0.1,0,0.2,0,0.3,0.1c0.1,0.1,0.1,0.2,0.1,0.3c0,0.5,0,0.9,0,1.2c0,0.3,0,0.6,0,0.9s0,0.6,0,0.9
						c0,0.3,0,0.7,0,1.1c0,0.7,0,1.3,0,1.9c0,0.6,0,1-0.1,1.4c0,0.1-0.1,0.3-0.1,0.4c-0.1,0.1-0.2,0.2-0.4,0.3
						c-0.1,0-0.3,0.1-0.5,0.1c-0.2,0-0.5,0-0.7,0.1c-0.3,0-0.5,0-0.8,0c-0.3,0-0.6,0-0.8,0h-1c-0.2,0-0.4,0-0.5-0.1
						s-0.2-0.1-0.2-0.2V105.5z M21.2,109.5c0-0.1,0-0.3,0.1-0.3c0.1-0.1,0.2-0.1,0.4-0.1h0.9c0.1,0,0.3,0,0.4,0.1
						c0.1,0.1,0.1,0.2,0.1,0.3v1.2c0,0.1-0.1,0.2-0.2,0.3c-0.1,0.1-0.2,0.1-0.4,0.1h-0.9c-0.1,0-0.3,0-0.4-0.1
						c-0.1-0.1-0.1-0.2-0.1-0.3V109.5z M24.9,109.5c0-0.1,0.1-0.3,0.2-0.3c0.1-0.1,0.2-0.1,0.4-0.1h0.9c0.1,0,0.3,0,0.4,0.1
						s0.2,0.2,0.2,0.3v1.2c0,0.1-0.1,0.2-0.2,0.3c-0.1,0.1-0.2,0.1-0.4,0.1h-0.9c-0.1,0-0.3,0-0.4-0.1c-0.1-0.1-0.2-0.2-0.2-0.3
						V109.5z"/>
				</g>
				<g>
					<path class="st4" d="M27.4,110.7c0-0.2,0.1-0.3,0.4-0.3h0.5c0.5,0,0.9,0,1.2-0.1s0.6-0.1,0.8-0.3c0.2-0.1,0.3-0.4,0.4-0.6
						c0.1-0.3,0.1-0.6,0.1-1.1v-9.4c0-0.1,0-0.2,0.1-0.3c0.1-0.1,0.2-0.1,0.3-0.1h1.1c0.1,0,0.2,0,0.3,0.1c0.1,0.1,0.1,0.2,0.1,0.3
						v9.3c0,0.5,0,0.9-0.1,1.4c-0.1,0.4-0.2,0.8-0.4,1.2c-0.3,0.5-0.7,0.8-1.2,1c-0.5,0.2-1.2,0.3-2.1,0.3c-0.1,0-0.2,0-0.5,0
						c-0.2,0-0.4,0-0.6-0.1c-0.1,0-0.2-0.1-0.3-0.1c0-0.1-0.1-0.1-0.1-0.2V110.7z"/>
				</g>
				<g>
					<path class="st4" d="M36.4,91.5c0-0.1,0-0.2,0.1-0.3c0.1-0.1,0.2-0.1,0.3-0.1H38c0.1,0,0.2,0,0.3,0.1c0.1,0.1,0.1,0.2,0.1,0.3
						V104c0,0.3,0,0.5,0.1,0.7s0.2,0.3,0.3,0.4c0.1,0.1,0.3,0.1,0.5,0.2c0.2,0,0.4,0,0.6,0h0.6v1.8h-1.1c-0.5,0-0.9,0-1.3-0.1
						c-0.4-0.1-0.7-0.2-0.9-0.4c-0.3-0.2-0.4-0.5-0.6-0.8s-0.2-0.8-0.2-1.3V91.5z"/>
				</g>
				<g>
					<path class="st4" d="M39.5,105.5c0-0.1,0.1-0.2,0.2-0.2c0.1-0.1,0.3-0.1,0.5-0.1h0.9c0.1,0,0.3,0,0.5,0c0.2,0,0.4,0,0.5-0.1
						c0.2,0,0.3-0.1,0.4-0.2c0.1-0.1,0.2-0.3,0.2-0.4v-4.6c0-0.1,0-0.2,0.1-0.3c0.1-0.1,0.2-0.1,0.3-0.1h1c0.1,0,0.2,0,0.3,0.1
						c0.1,0.1,0.1,0.2,0.1,0.3v4.9c0,0.1,0.1,0.2,0.3,0.3s0.3,0.1,0.5,0.1c0.2,0,0.4,0.1,0.5,0.1c0.2,0,0.3,0,0.5,0h0.5
						c0.1,0,0.3,0,0.5,0c0.2,0,0.3-0.1,0.5-0.1c0.1-0.1,0.3-0.1,0.4-0.2c0.1-0.1,0.2-0.2,0.2-0.4v-5.4c0-0.1,0-0.2,0.1-0.3
						c0.1-0.1,0.2-0.1,0.3-0.1h1c0.1,0,0.2,0,0.3,0.1c0.1,0.1,0.1,0.2,0.1,0.3v5.6c0.1,0.2,0.3,0.4,0.7,0.4c0.4,0.1,0.7,0.1,1.1,0.1
						h0.3c0.1,0,0.3,0,0.5,0c0.2,0,0.4,0,0.5-0.1c0.2-0.1,0.3-0.1,0.4-0.2c0.1-0.1,0.2-0.2,0.2-0.4v-6.2c0-0.1,0-0.2,0.1-0.3
						c0.1-0.1,0.2-0.1,0.3-0.1h1.1c0.1,0,0.2,0,0.3,0.1c0.1,0.1,0.1,0.2,0.1,0.3v6.4c0,0.1,0.1,0.2,0.3,0.3c0.1,0.1,0.3,0.1,0.5,0.1
						c0.2,0,0.4,0.1,0.5,0.1c0.2,0,0.3,0,0.5,0h0.4v1.8h-0.4c-0.4,0-0.9,0-1.4-0.1s-1-0.3-1.4-0.6c-0.3,0.3-0.8,0.5-1.2,0.6
						c-0.5,0.1-0.9,0.1-1.4,0.1h-0.4c-0.5,0-1,0-1.4-0.1c-0.4-0.1-0.8-0.3-1.2-0.6c-0.6,0.5-1.5,0.7-2.6,0.7h-0.4
						c-0.4,0-0.8,0-1.3-0.1c-0.5-0.1-0.9-0.3-1.2-0.6c-0.2,0.2-0.4,0.3-0.6,0.4c-0.2,0.1-0.5,0.2-0.7,0.2c-0.2,0.1-0.5,0.1-0.7,0.1
						c-0.2,0-0.4,0-0.6,0h-0.7c-0.2,0-0.4,0-0.5-0.1c-0.1-0.1-0.2-0.1-0.2-0.2V105.5z M46.2,94.7c0-0.1,0-0.3,0.1-0.4
						c0.1-0.1,0.2-0.1,0.4-0.1h0.9c0.1,0,0.3,0,0.4,0.1c0.1,0.1,0.1,0.2,0.1,0.4v1.1c0,0.1-0.1,0.2-0.2,0.3
						c-0.1,0.1-0.2,0.1-0.4,0.1h-0.9c-0.1,0-0.3,0-0.4-0.1c-0.1-0.1-0.1-0.2-0.1-0.3V94.7z M48.1,92.1c0-0.1,0-0.2,0.2-0.3
						c0.1-0.1,0.2-0.1,0.4-0.1h0.8c0.1,0,0.3,0,0.4,0.1c0.1,0.1,0.2,0.2,0.2,0.3v1c0,0.1-0.1,0.3-0.2,0.3c-0.1,0.1-0.2,0.1-0.4,0.1
						h-0.8c-0.1,0-0.2,0-0.4-0.1c-0.1-0.1-0.1-0.2-0.1-0.3V92.1z M49.9,94.7c0-0.1,0.1-0.3,0.2-0.4c0.1-0.1,0.2-0.1,0.4-0.1h0.9
						c0.1,0,0.3,0,0.4,0.1s0.2,0.2,0.2,0.4v1.1c0,0.1-0.1,0.2-0.2,0.3c-0.1,0.1-0.2,0.1-0.4,0.1h-0.9c-0.1,0-0.3,0-0.4-0.1
						c-0.1-0.1-0.2-0.2-0.2-0.3V94.7z"/>
				</g>
				<g>
					<path class="st4" d="M57,105.5c0-0.1,0.1-0.2,0.2-0.2c0.1-0.1,0.3-0.1,0.5-0.1h0.7c0.1,0,0.2,0,0.4,0c0.2,0,0.3,0,0.5-0.1
						c0.2,0,0.3-0.1,0.4-0.2c0.1-0.1,0.2-0.2,0.2-0.3c0-0.2,0.1-0.4,0.1-0.6v-2c0-1.5,0.4-2.6,1.2-3.4c0.8-0.8,1.9-1.2,3.4-1.2
						c1.5,0,2.6,0.4,3.4,1.2c0.8,0.8,1.1,1.9,1.1,3.4v1.2c0,0.2,0,0.4,0,0.6c0,0.2,0,0.4-0.1,0.5c0,0.2,0.1,0.4,0.2,0.5
						c0.1,0.1,0.3,0.2,0.5,0.3c0.2,0.1,0.4,0.1,0.5,0.2c0.2,0,0.3,0,0.5,0h0.3v1.8h-0.3c-0.5,0-1-0.1-1.5-0.2s-0.9-0.3-1.1-0.6
						c-0.7,1-1.9,1.5-3.6,1.5c-0.8,0-1.6-0.1-2.2-0.4c-0.7-0.2-1.1-0.6-1.5-1.1c-0.3,0.3-0.7,0.5-1.2,0.6c-0.5,0.1-1,0.2-1.5,0.2
						h-0.5c-0.2,0-0.4,0-0.5-0.1c-0.1-0.1-0.2-0.1-0.2-0.2V105.5z M62,102.2v1c0,0.5,0,0.9,0.1,1.2c0.1,0.6,0.4,1,0.9,1.3
						c0.5,0.3,1,0.4,1.7,0.4c1,0,1.7-0.2,2.1-0.7c0.4-0.5,0.6-1.2,0.6-2.2v-1c0-1-0.2-1.7-0.6-2.2s-1.1-0.8-2.1-0.8
						c-1,0-1.7,0.3-2.1,0.8C62.2,100.4,62,101.2,62,102.2z"/>
				</g>
				<g>
					<path class="st4" d="M70.3,105.5c0-0.1,0.1-0.2,0.2-0.2c0.1-0.1,0.3-0.1,0.5-0.1h11.3c0.4,0,0.7,0,0.8-0.1
						c0.1-0.1,0.2-0.3,0.2-0.7v-13c0-0.1,0-0.2,0.1-0.3s0.2-0.1,0.3-0.1h1.1c0.1,0,0.2,0,0.3,0.1s0.1,0.2,0.1,0.3v12.3
						c0,0.2,0,0.4,0,0.6s0,0.4,0,0.7s0,0.4,0,0.7c0,0.2,0,0.4-0.1,0.6c0,0.1-0.1,0.3-0.1,0.4c-0.1,0.1-0.2,0.2-0.4,0.3
						c-0.1,0-0.3,0.1-0.5,0.1c-0.2,0-0.5,0-0.7,0.1c-0.3,0-0.6,0-0.8,0c-0.3,0-0.6,0-0.8,0H71.1c-0.2,0-0.4,0-0.5-0.1
						s-0.2-0.1-0.2-0.2V105.5z"/>
				</g>
				<g>
					<path class="st4" d="M89,91.5c0-0.1,0-0.2,0.1-0.3c0.1-0.1,0.2-0.1,0.3-0.1h1.1c0.1,0,0.2,0,0.3,0.1c0.1,0.1,0.1,0.2,0.1,0.3
						v15.2c0,0.1,0,0.2-0.1,0.3c-0.1,0.1-0.2,0.1-0.3,0.1h-1.1c-0.1,0-0.2,0-0.3-0.1c-0.1-0.1-0.1-0.2-0.1-0.3V91.5z"/>
				</g>
				<g>
					<path class="st4" d="M100,102.1c0-1.5,0.4-2.7,1.3-3.5c0.9-0.9,2.2-1.3,4-1.3c0.6,0,1.2,0,1.7,0.1c0.6,0.1,1,0.1,1.4,0.2
						c0.1,0,0.2,0.1,0.3,0.1c0,0.1,0.1,0.1,0.1,0.2v5.6c0,0.2,0,0.4,0,0.7c0,0.2,0,0.5,0,0.8c0,0.3,0,0.5,0,0.8c0,0.2,0,0.5,0,0.7
						c0,0.2,0,0.3-0.1,0.3s-0.2,0.1-0.4,0.1c-0.5,0.1-1,0.1-1.5,0.2s-0.9,0-1.4,0h-0.3c-1.7,0-2.9-0.4-3.8-1.1
						c-0.9-0.7-1.3-1.8-1.3-3.3V102.1z M101.9,102.4c0,1,0.3,1.7,0.8,2.2c0.5,0.5,1.4,0.7,2.6,0.7c0.3,0,0.6,0,0.9,0
						c0.2,0,0.5,0,0.9-0.1V99c-0.3,0-0.6-0.1-0.9-0.1c-0.3,0-0.6,0-1,0c-1.1,0-1.9,0.3-2.4,0.8c-0.5,0.5-0.8,1.3-0.8,2.3V102.4z
						 M102,93.3c0-0.1,0-0.3,0.1-0.3c0.1-0.1,0.2-0.1,0.4-0.1h0.9c0.1,0,0.3,0,0.4,0.1c0.1,0.1,0.1,0.2,0.1,0.3v1.2
						c0,0.1,0,0.2-0.2,0.3c-0.1,0.1-0.2,0.1-0.4,0.1h-0.9c-0.1,0-0.3,0-0.4-0.1c-0.1-0.1-0.1-0.2-0.1-0.3V93.3z M105.6,93.3
						c0-0.1,0.1-0.3,0.2-0.3c0.1-0.1,0.2-0.1,0.4-0.1h0.9c0.1,0,0.2,0,0.4,0.1c0.1,0.1,0.2,0.2,0.2,0.3v1.2c0,0.1,0,0.2-0.2,0.3
						c-0.1,0.1-0.2,0.1-0.4,0.1h-0.9c-0.1,0-0.3,0-0.4-0.1c-0.1-0.1-0.2-0.2-0.2-0.3V93.3z"/>
				</g>
				<g>
					<path class="st4" d="M109.9,110.7c0-0.2,0.1-0.3,0.4-0.3h0.5c0.5,0,0.9,0,1.2-0.1s0.6-0.1,0.8-0.3c0.2-0.1,0.3-0.4,0.4-0.6
						c0.1-0.3,0.1-0.6,0.1-1.1v-9.4c0-0.1,0-0.2,0.1-0.3c0.1-0.1,0.2-0.1,0.3-0.1h1.1c0.1,0,0.2,0,0.3,0.1c0.1,0.1,0.1,0.2,0.1,0.3
						v9.3c0,0.5,0,0.9-0.1,1.4c-0.1,0.4-0.2,0.8-0.4,1.2c-0.3,0.5-0.7,0.8-1.2,1c-0.5,0.2-1.2,0.3-2.1,0.3c-0.1,0-0.2,0-0.5,0
						c-0.2,0-0.4,0-0.6-0.1c-0.1,0-0.2-0.1-0.3-0.1c0-0.1-0.1-0.1-0.1-0.2V110.7z"/>
				</g>
				<g>
					<path class="st4" d="M118.9,91.5c0-0.1,0-0.2,0.1-0.3c0.1-0.1,0.2-0.1,0.3-0.1h1.1c0.1,0,0.2,0,0.3,0.1
						c0.1,0.1,0.1,0.2,0.1,0.3v15.2c0,0.1,0,0.2-0.1,0.3c-0.1,0.1-0.2,0.1-0.3,0.1h-1.1c-0.1,0-0.2,0-0.3-0.1
						c-0.1-0.1-0.1-0.2-0.1-0.3V91.5z"/>
				</g>
				<g>
					<path class="st4" d="M123.9,105.6c0-0.1,0-0.2,0.1-0.3c0.1-0.1,0.2-0.1,0.3-0.1h6.1l0-2.6c0-1.2-0.4-2.2-1-2.8
						c-0.6-0.6-1.7-0.9-3.1-0.9c-0.2,0-0.4,0-0.7,0c-0.3,0-0.6,0-0.8,0.1c-0.3,0-0.4-0.1-0.4-0.3v-0.9c0-0.1,0-0.2,0.1-0.3
						c0.1-0.1,0.2-0.1,0.3-0.1c0.4-0.1,0.8-0.1,1.1-0.1c0.4,0,0.6,0,0.8,0c1,0,1.9,0.1,2.6,0.4c0.7,0.3,1.3,0.6,1.7,1.1
						c0.4,0.5,0.7,1,0.9,1.7c0.2,0.6,0.3,1.3,0.3,2.1c0,0.1,0,0.2,0,0.4c0,0.2,0,0.5,0,0.7c0,0.3,0,0.5,0,0.8c0,0.2,0,0.4,0,0.5
						c0,0.1,0,0.2,0,0.4c0,0.1,0,0.3,0,0.5c0,0.2,0,0.3,0,0.5c0,0.2,0,0.3,0,0.4c0,0.3-0.2,0.4-0.5,0.4h-7.4c-0.1,0-0.2,0-0.3-0.1
						c-0.1-0.1-0.1-0.2-0.1-0.3V105.6z"/>
				</g>
				<g>
					<path class="st4" d="M135,112.3c-0.3,0-0.4-0.1-0.4-0.3v-0.4c0-0.1,0.1-0.2,0.4-0.2h0.4c-0.1-0.2-0.2-0.3-0.3-0.6
						c-0.1-0.2-0.1-0.4-0.1-0.7c0-0.6,0.2-1,0.6-1.3c0.4-0.3,0.9-0.4,1.6-0.4c0.1,0,0.2,0,0.4,0s0.3,0,0.5,0.1
						c0.2,0.1,0.2,0.1,0.2,0.3v0.3c0,0.2-0.1,0.2-0.3,0.2c0,0-0.1,0-0.3,0c-0.2,0-0.3,0-0.4,0c-0.8,0-1.2,0.3-1.2,1
						c0,0.3,0.1,0.5,0.2,0.7c0.1,0.2,0.2,0.3,0.3,0.4h1.5c0.3,0,0.4,0.1,0.4,0.3v0.3c0,0.1,0,0.2-0.1,0.2c-0.1,0-0.2,0-0.3,0H135z
						 M135.8,91.5c0-0.1,0-0.2,0.1-0.3c0.1-0.1,0.2-0.1,0.3-0.1h1.1c0.1,0,0.2,0,0.3,0.1c0.1,0.1,0.1,0.2,0.1,0.3v15.2
						c0,0.1,0,0.2-0.1,0.3c-0.1,0.1-0.2,0.1-0.3,0.1h-1.1c-0.1,0-0.2,0-0.3-0.1c-0.1-0.1-0.1-0.2-0.1-0.3V91.5z"/>
				</g>
				<g>
					<path class="st4" d="M170.1,105.3c0.4,0,0.7,0,0.8-0.1c0.1-0.1,0.2-0.3,0.2-0.7c0-0.5,0-1,0-1.4c0-0.4,0-0.9,0-1.3
						c0-0.4,0-0.9,0-1.3c0-0.5,0-1,0-1.5c0-0.1,0-0.2,0.1-0.3c0.1-0.1,0.2-0.1,0.3-0.1h1.1c0.1,0,0.2,0,0.3,0.1
						c0.1,0.1,0.1,0.2,0.1,0.3c0,0.5,0,0.9,0,1.2c0,0.3,0,0.6,0,0.9c0,0.3,0,0.6,0,0.9c0,0.3,0,0.7,0,1.1c0,0.7,0,1.3,0,1.9
						c0,0.6,0,1-0.1,1.4c0,0.1-0.1,0.3-0.1,0.4c-0.1,0.1-0.2,0.2-0.4,0.3c-0.1,0-0.3,0.1-0.6,0.1c-0.3,0-0.6,0-1,0.1
						c-0.4,0-0.8,0-1.2,0c-0.4,0-0.9,0-1.3,0h-5.2c-1.4,0-12.1-0.1-13-0.4c-0.9-0.3-1.6-0.6-2.2-1.1c-0.5-0.5-0.9-1.1-1.1-1.8
						c-0.2-0.7-0.3-1.5-0.3-2.4c0-0.3,0-0.6,0-0.9c0-0.3,0.1-0.7,0.1-1.1c0-0.3,0.2-0.4,0.5-0.4h0.9c0.2,0,0.4,0.1,0.3,0.4
						c0,0.3,0,0.6-0.1,0.8c0,0.2,0,0.5,0,0.7c0,0.6,0.1,1.2,0.2,1.7c0.1,0.5,0.4,1,0.7,1.4c0.4,0.4,0.9,0.7,1.6,0.9
						c0.7,0.2,11.1,0.3,12.3,0.3H170.1z M161.7,95.3c0-0.1,0-0.3,0.1-0.3c0.1-0.1,0.2-0.1,0.4-0.1h0.9c0.1,0,0.3,0,0.4,0.1
						c0.1,0.1,0.1,0.2,0.1,0.3v1.2c0,0.1,0,0.2-0.2,0.3c-0.1,0.1-0.2,0.1-0.4,0.1h-0.9c-0.1,0-0.3,0-0.4-0.1
						c-0.1-0.1-0.1-0.2-0.1-0.3V95.3z M165.4,95.3c0-0.1,0.1-0.3,0.2-0.3c0.1-0.1,0.2-0.1,0.4-0.1h0.9c0.1,0,0.2,0,0.4,0.1
						c0.1,0.1,0.2,0.2,0.2,0.3v1.2c0,0.1,0,0.2-0.2,0.3c-0.1,0.1-0.2,0.1-0.4,0.1h-0.9c-0.1,0-0.3,0-0.4-0.1
						c-0.1-0.1-0.2-0.2-0.2-0.3V95.3z"/>
				</g>
				<g>
					<path class="st4" d="M176.8,91.5c0-0.1,0-0.2,0.1-0.3c0.1-0.1,0.2-0.1,0.3-0.1h1.1c0.1,0,0.2,0,0.3,0.1
						c0.1,0.1,0.1,0.2,0.1,0.3V104c0,0.3,0,0.5,0.1,0.7s0.2,0.3,0.3,0.4c0.1,0.1,0.3,0.1,0.5,0.2c0.2,0,0.4,0,0.6,0h10v1.8h-10.5
						c-0.5,0-0.9,0-1.3-0.1c-0.4-0.1-0.7-0.2-0.9-0.4c-0.3-0.2-0.4-0.5-0.6-0.8s-0.2-0.8-0.2-1.3V91.5z"/>
				</g>
				<g>
					<path class="st4" d="M179.9,105.5c0-0.1,0.1-0.2,0.2-0.2c0.1-0.1,9.8-0.1,10-0.1h0.7c0.1,0,0.2,0,0.4,0c0.2,0,0.3-0.1,0.5-0.1
						c0.2-0.1,0.3-0.1,0.4-0.2c0.1-0.1,0.2-0.2,0.2-0.4c0-0.2,0.1-0.4,0.1-0.6v-2c0-1.5,0.4-2.6,1.2-3.4c0.8-0.8,1.9-1.2,3.4-1.2
						c1.5,0,2.6,0.4,3.4,1.1c0.8,0.8,1.1,1.9,1.1,3.4v1.1c0,1.5-0.4,2.6-1.1,3.4c-0.7,0.8-1.9,1.1-3.5,1.1c-0.8,0-1.6-0.1-2.2-0.3
						c-0.6-0.2-1.1-0.6-1.5-1c-0.2,0.4-0.6,0.6-1.2,0.8c-0.5,0.1-1.1,0.2-1.7,0.2h-0.4c-0.2,0-9.9,0-10-0.1
						c-0.1-0.1-0.2-0.1-0.2-0.2V105.5z M194.4,103c0,0.5,0,0.8,0.1,1.2c0.1,0.6,0.5,1,0.9,1.3c0.5,0.2,1,0.3,1.7,0.3
						c1,0,1.7-0.2,2.1-0.7c0.4-0.4,0.6-1.2,0.6-2.2V102c0-1-0.2-1.7-0.6-2.2c-0.4-0.5-1.1-0.8-2.1-0.8c-1,0-1.7,0.3-2.1,0.8
						c-0.4,0.5-0.6,1.3-0.6,2.2V103z"/>
				</g>
				<g>
					<path class="st4" d="M204.2,105.6c0-0.1,0-0.2,0.1-0.3c0.1-0.1,0.2-0.1,0.3-0.1h6.1l0-2.6c0-1.2-0.4-2.2-1-2.8
						c-0.6-0.6-1.7-0.9-3.1-0.9c-0.2,0-0.4,0-0.7,0c-0.3,0-0.6,0-0.8,0.1c-0.3,0-0.4-0.1-0.4-0.3v-0.9c0-0.1,0-0.2,0.1-0.3
						c0.1-0.1,0.2-0.1,0.3-0.1c0.4-0.1,0.8-0.1,1.1-0.1c0.4,0,0.6,0,0.8,0c1,0,1.9,0.1,2.6,0.4c0.7,0.3,1.3,0.6,1.7,1.1
						c0.4,0.5,0.7,1,1,1.7c0.2,0.6,0.3,1.3,0.3,2.1l0,2.7h1.5v1.8h-9.5c-0.1,0-0.2,0-0.3-0.1c-0.1-0.1-0.1-0.2-0.1-0.3V105.6z"/>
				</g>
				<g>
					<path class="st4" d="M214,107.1c-0.2,0-0.4,0-0.6-0.1c-0.1-0.1-0.2-0.1-0.2-0.2v-1.3c0-0.1,0.1-0.2,0.2-0.2
						c0.1-0.1,0.3-0.1,0.5-0.1h10.4l-0.8-1.8l-0.5-1.1c-0.5-1.1-1.1-1.9-2-2.4c-0.8-0.5-1.9-0.8-3.3-0.8c-0.1,0-0.4,0-0.7,0
						c-0.3,0-0.6,0-0.9,0.1c-0.3,0-0.5-0.1-0.5-0.3V98c0-0.1,0-0.2,0.1-0.3c0.1-0.1,0.2-0.1,0.3-0.1c0.3-0.1,0.7-0.1,1-0.1
						c0.4,0,0.7,0,1.1,0c0.7,0,1.5,0.1,2.1,0.2c0.7,0.1,1.3,0.4,1.9,0.7c0.6,0.4,1.1,0.9,1.6,1.5c0.5,0.6,1,1.4,1.4,2.4l0.2,0.6
						l0.9,2.1c0.1,0.1,0.1,0.2,0.2,0.2c0,0,0.1,0,0.2,0h0.2v1.8H214z M218.5,93.5c0-0.1,0-0.3,0.2-0.3c0.1-0.1,0.2-0.1,0.4-0.1h1
						c0.1,0,0.2,0,0.3,0.1c0.1,0.1,0.1,0.2,0.1,0.3v1.1c0,0.1,0,0.2-0.1,0.3c-0.1,0.1-0.2,0.1-0.4,0.1h-1c-0.1,0-0.3,0-0.4-0.1
						c-0.1-0.1-0.1-0.2-0.1-0.3V93.5z"/>
				</g>
				<g>
					<path class="st4" d="M226,105.5c0-0.1,0.1-0.2,0.2-0.2c0.1-0.1,0.3-0.1,0.5-0.1h20.7c0.4,0,0.7,0,0.8-0.1
						c0.1-0.1,0.2-0.3,0.2-0.7v-13c0-0.1,0-0.2,0.1-0.3s0.2-0.1,0.3-0.1h1.1c0.1,0,0.2,0,0.3,0.1c0.1,0.1,0.1,0.2,0.1,0.3v12.3
						c0,0.2,0,0.4,0,0.6s0,0.4,0,0.7c0,0.2,0,0.4,0,0.7c0,0.2,0,0.4-0.1,0.6c0,0.1-0.1,0.3-0.1,0.4c-0.1,0.1-0.2,0.2-0.4,0.3
						c-0.1,0-0.3,0.1-0.5,0.1c-0.2,0-0.5,0-0.7,0.1c-0.3,0-0.6,0-0.8,0c-0.3,0-0.6,0-0.8,0h-20.1c-0.2,0-0.4,0-0.5-0.1
						s-0.2-0.1-0.2-0.2V105.5z"/>
				</g>
			</g>
		</g>
	</g>
</g>
</svg>
